<?xml version="1.0" standalone="no"?>
<!DOCTYPE svg PUBLIC "-//W3C//DTD SVG 20010904//EN"
 "http://www.w3.org/TR/2001/REC-SVG-20010904/DTD/svg10.dtd">
<svg version="1.0" xmlns="http://www.w3.org/2000/svg"
 width="512.000000pt" height="512.000000pt" viewBox="0 0 512.000000 512.000000"
 preserveAspectRatio="xMidYMid meet">

<g transform="translate(0.000000,512.000000) scale(0.100000,-0.100000)"
fill="#000000" stroke="none">
<path d="M2318 5110 c-120 -21 -211 -63 -286 -134 -144 -135 -174 -365 -74
-550 l30 -56 -28 -20 c-88 -63 -75 -275 23 -379 37 -39 100 -70 141 -71 23 0
42 -12 78 -52 l49 -51 -3 -86 -3 -85 -196 -56 c-108 -31 -217 -69 -242 -83
-62 -36 -122 -108 -148 -176 -23 -59 -38 -225 -25 -275 16 -64 92 -89 133 -43
18 19 21 39 25 132 3 75 10 120 21 141 27 51 81 91 154 113 38 11 122 36 188
55 l120 35 20 -27 c74 -100 145 -142 254 -150 121 -8 224 40 281 133 12 19 27
35 33 35 7 0 93 -24 192 -54 167 -50 182 -57 216 -94 41 -43 59 -93 59 -160 0
-92 105 -129 145 -51 46 89 -23 284 -128 360 -57 41 -84 52 -289 112 l-178 51
0 91 c1 90 1 90 38 133 33 37 45 44 101 53 85 15 136 55 180 142 30 59 35 76
35 145 0 88 -15 126 -66 166 -30 23 -31 26 -16 43 50 57 98 213 98 320 0 96
-15 164 -55 248 -67 141 -122 167 -206 100 -24 -19 -54 -35 -66 -35 -13 0 -67
14 -120 31 -54 17 -132 38 -173 45 -82 14 -237 16 -312 4z m279 -160 c34 -6
112 -26 174 -45 122 -39 166 -42 229 -20 23 8 46 12 51 10 16 -11 39 -109 39
-171 0 -89 -57 -254 -87 -254 -5 0 -17 17 -28 37 -22 41 -77 83 -108 83 -12 0
-50 -18 -86 -40 -36 -21 -86 -44 -111 -49 -60 -13 -165 2 -244 35 -33 14 -74
31 -89 37 -41 17 -76 -7 -112 -76 -16 -31 -37 -64 -46 -73 -15 -15 -18 -13
-42 18 -59 78 -72 117 -72 213 0 79 4 96 28 143 42 80 122 129 252 156 41 8
192 6 252 -4z m262 -594 c6 -25 11 -98 11 -163 0 -107 -3 -124 -25 -170 -51
-101 -192 -204 -281 -205 -58 -1 -143 42 -208 106 -78 76 -99 122 -104 232
l-4 91 52 72 c40 54 57 70 69 65 53 -23 167 -45 241 -46 83 0 187 25 214 52
17 17 23 11 35 -34z m-770 -193 c-1 -66 -1 -67 -14 -38 -20 42 -19 105 0 105
12 0 15 -14 14 -67z m989 45 c4 -23 -15 -90 -32 -113 -14 -18 -15 -13 -16 58
0 76 1 78 22 75 13 -2 24 -11 26 -20z m-622 -534 c48 -20 156 -20 213 0 24 9
45 16 47 16 2 0 4 -30 4 -66 0 -119 -59 -181 -162 -172 -55 6 -92 28 -125 78
-18 26 -23 47 -23 96 0 35 2 64 4 64 2 0 21 -7 42 -16z"/>
<path d="M641 3795 c-180 -40 -312 -153 -354 -305 -37 -133 -26 -247 34 -360
l32 -60 -25 -20 c-84 -65 -80 -251 8 -365 31 -41 112 -85 157 -85 20 0 40 -13
72 -47 l45 -48 -2 -89 -3 -89 -120 -34 c-312 -88 -347 -105 -414 -199 -68 -95
-73 -130 -69 -527 l3 -349 24 -19 c30 -24 72 -24 102 0 l24 19 5 365 5 365 30
43 c17 24 44 51 60 61 17 9 111 40 210 69 171 50 180 51 190 33 5 -10 33 -42
61 -70 103 -104 271 -121 391 -41 27 18 62 53 79 78 l30 46 85 -24 c223 -64
280 -85 315 -115 67 -59 68 -66 74 -341 5 -231 6 -250 24 -263 23 -16 69 -18
96 -4 32 17 40 66 40 261 l0 188 28 -26 c41 -38 94 -62 156 -69 49 -6 58 -11
81 -44 14 -21 37 -48 50 -60 24 -22 25 -29 25 -140 l0 -116 -237 -68 c-131
-38 -259 -80 -286 -94 -57 -31 -137 -112 -167 -173 -48 -92 -50 -117 -50 -589
0 -511 -4 -490 80 -490 83 0 80 -20 80 481 0 473 2 494 55 563 44 58 87 77
327 147 l228 66 31 -48 c67 -105 165 -160 296 -167 141 -8 245 42 312 149 20
32 41 58 47 59 22 0 429 -122 465 -140 43 -23 85 -70 110 -125 17 -37 19 -76
19 -483 0 -516 -2 -502 80 -502 84 0 80 -22 80 496 0 422 -1 456 -20 516 -27
87 -86 167 -161 217 -63 42 -90 52 -386 137 l-173 49 0 118 0 119 53 59 c42
47 58 59 83 59 55 0 134 30 174 66 l39 35 3 -205 c3 -201 3 -205 27 -230 31
-33 79 -35 108 -3 20 21 22 35 25 262 l3 240 27 47 c15 25 42 55 60 66 42 26
389 126 397 115 4 -4 24 -29 44 -55 73 -92 207 -134 328 -104 72 19 118 51
168 118 l34 45 166 -49 c198 -58 227 -72 266 -127 l30 -43 5 -365 5 -365 24
-19 c33 -27 77 -24 107 6 l25 25 -3 368 -3 367 -28 60 c-32 69 -94 137 -152
168 -22 11 -125 46 -230 77 l-190 57 -3 85 -3 86 38 45 c31 38 46 47 83 52
137 21 226 122 237 269 7 86 -9 139 -56 178 l-38 32 29 45 c49 77 80 192 80
298 0 142 -53 286 -129 353 -44 39 -72 38 -122 -4 -23 -19 -50 -37 -60 -41
-10 -3 -68 10 -129 29 -159 50 -224 59 -381 53 -162 -6 -238 -26 -333 -90 -72
-48 -128 -118 -160 -197 -18 -45 -22 -75 -22 -170 0 -121 16 -182 66 -252 20
-28 20 -30 2 -43 -11 -8 -22 -15 -26 -15 -3 0 -16 -19 -27 -43 -74 -153 50
-396 203 -397 23 0 41 -12 78 -52 l48 -52 0 -83 0 -82 -67 -20 c-38 -11 -122
-35 -188 -54 -158 -45 -185 -58 -239 -108 l-46 -42 0 39 c-1 70 -40 134 -102
167 l-27 14 33 46 c136 192 152 474 39 689 -74 141 -128 169 -200 104 -78 -69
-90 -69 -255 -17 -189 60 -226 66 -408 65 -136 -1 -179 -5 -245 -23 -120 -32
-201 -76 -271 -145 -106 -107 -149 -231 -142 -406 5 -115 29 -189 86 -274 l30
-44 -36 -23 c-48 -31 -82 -92 -82 -148 l0 -43 -39 35 c-59 53 -88 65 -296 127
l-190 56 -2 90 -3 89 39 43 c34 37 47 44 101 54 84 14 135 54 179 141 31 60
35 76 35 145 -1 86 -17 129 -63 163 l-28 21 39 76 c48 97 68 176 68 272 0 94
-20 173 -67 262 -39 75 -82 118 -117 118 -13 0 -41 -14 -62 -31 -64 -51 -74
-52 -180 -18 -52 17 -125 37 -162 44 -85 18 -296 18 -381 0z m464 -187 c154
-50 181 -53 249 -30 l57 19 10 -24 c48 -126 33 -276 -37 -382 l-22 -33 -21 40
c-46 90 -115 106 -204 48 -111 -74 -216 -72 -389 6 -60 27 -69 29 -94 17 -17
-9 -43 -39 -64 -77 -50 -87 -55 -90 -80 -61 -12 13 -35 52 -52 87 -67 138 -25
306 94 376 78 45 139 56 298 52 134 -3 154 -6 255 -38z m3280 -3 c134 -43 209
-49 263 -21 l33 17 17 -38 c13 -29 17 -65 17 -148 0 -98 -3 -116 -26 -165 -15
-30 -34 -64 -42 -75 -14 -19 -15 -18 -30 16 -8 19 -29 47 -46 62 -47 39 -91
36 -170 -12 -43 -27 -81 -42 -115 -46 -66 -8 -178 15 -266 56 -62 28 -70 30
-97 17 -17 -8 -40 -35 -59 -71 -17 -32 -37 -65 -46 -73 -14 -14 -18 -12 -47
23 -96 117 -94 307 5 407 73 72 164 96 349 92 130 -3 149 -6 260 -41z m-3157
-681 c3 -127 2 -146 -18 -192 -43 -101 -193 -212 -285 -212 -89 0 -229 102
-280 203 -22 44 -25 64 -25 147 0 84 3 99 20 115 11 10 32 37 47 61 l27 42 52
-18 c77 -27 198 -43 264 -35 32 4 85 19 117 34 52 25 59 26 68 12 5 -9 11 -79
13 -157z m3272 98 c18 -97 9 -235 -18 -295 -45 -100 -191 -207 -284 -207 -88
0 -218 91 -273 192 -25 45 -30 67 -33 144 l-4 91 51 70 51 70 58 -20 c140 -47
284 -45 383 6 24 13 47 22 51 20 3 -2 12 -34 18 -71z m-1840 13 c36 -9 115
-32 175 -51 126 -41 192 -43 265 -6 25 12 48 18 52 14 20 -20 51 -135 55 -207
8 -129 -40 -286 -107 -350 l-27 -26 -13 33 c-52 126 -127 159 -223 98 -107
-67 -127 -74 -217 -74 -102 0 -170 15 -269 60 -78 36 -118 42 -142 22 -9 -7
-35 -48 -59 -91 -24 -42 -51 -84 -61 -93 -16 -14 -21 -12 -60 38 -23 29 -54
78 -68 108 -23 49 -26 67 -26 165 0 100 3 115 28 166 75 154 241 224 507 214
69 -2 154 -11 190 -20z m-2203 -181 c3 -64 2 -67 -11 -44 -22 40 -25 124 -3
118 8 -3 13 -29 14 -74z m976 29 c-1 -23 -10 -56 -20 -75 l-18 -33 -3 64 c-4
75 2 94 25 89 14 -3 18 -13 16 -45z m2297 -20 c-1 -64 -2 -67 -15 -43 -15 26
-20 92 -8 103 17 18 23 2 23 -60z m978 37 c5 -30 -14 -94 -31 -108 -9 -8 -11
6 -9 64 3 64 6 75 20 72 9 -2 19 -14 20 -28z m-3888 -525 c54 -19 143 -19 206
0 27 8 50 15 52 15 1 0 2 -31 2 -69 0 -81 -24 -125 -83 -155 -75 -36 -179 8
-213 91 -12 29 -20 133 -10 133 2 0 23 -7 46 -15z m2099 -17 c24 -77 33 -164
29 -270 -4 -96 -8 -122 -31 -172 -37 -81 -86 -138 -169 -196 -87 -61 -154 -84
-220 -77 -112 14 -272 137 -330 255 -31 62 -33 75 -37 184 l-3 118 41 47 c23
26 51 64 63 85 12 21 25 38 30 38 4 0 40 -11 80 -24 173 -58 336 -56 458 7 36
19 68 35 72 35 3 1 11 -13 17 -30z m1176 17 c53 -19 152 -19 205 0 23 8 44 15
46 15 2 0 4 -33 4 -72 0 -93 -20 -129 -85 -154 -41 -15 -53 -16 -94 -5 -83 22
-121 76 -121 171 0 33 1 60 3 60 1 0 20 -7 42 -15z m-2095 -292 c0 -49 3 -98
6 -110 10 -37 -13 -27 -43 18 -22 33 -28 57 -31 110 l-4 69 36 0 36 0 0 -87z
m1188 42 c5 -55 -16 -121 -50 -157 -16 -17 -31 -29 -33 -26 -3 2 -2 55 2 117
l6 112 36 -3 c34 -3 36 -5 39 -43z m-438 -797 c-14 -48 -55 -97 -97 -114 -73
-31 -178 -11 -236 44 -51 48 -67 92 -67 187 0 47 1 85 3 85 1 0 34 -11 72 -25
102 -36 210 -30 300 18 l30 15 3 -86 c2 -48 -2 -104 -8 -124z"/>
<path d="M363 1576 l-28 -24 0 -162 0 -162 28 -24 c15 -13 39 -24 52 -24 13 0
37 11 52 24 l28 24 0 162 0 162 -28 24 c-15 13 -39 24 -52 24 -13 0 -37 -11
-52 -24z"/>
<path d="M1379 1571 l-29 -29 0 -147 c0 -147 6 -177 39 -202 26 -20 70 -15 96
12 24 24 25 27 25 185 0 158 -1 161 -25 185 -33 33 -70 32 -106 -4z"/>
<path d="M3649 1571 l-29 -29 0 -147 c0 -147 6 -177 39 -202 26 -20 70 -15 96
12 24 24 25 27 25 185 0 158 -1 161 -25 185 -33 33 -70 32 -106 -4z"/>
<path d="M4665 1575 c-24 -24 -25 -27 -25 -185 0 -158 1 -161 25 -185 32 -33
78 -33 110 0 24 24 25 27 25 185 0 158 -1 161 -25 185 -15 16 -36 25 -55 25
-19 0 -40 -9 -55 -25z"/>
<path d="M1925 528 c-43 -23 -45 -32 -45 -260 l0 -219 25 -24 c26 -27 70 -32
96 -12 35 27 39 53 39 262 l0 207 -29 29 c-31 31 -53 35 -86 17z"/>
<path d="M3145 528 c-43 -23 -45 -32 -45 -260 l0 -219 25 -24 c26 -27 51 -31
88 -14 42 19 47 47 47 265 l0 206 -29 29 c-31 31 -53 35 -86 17z"/>
</g>
</svg>
