<svg id="Layer_1" data-name="Layer 1" xmlns="http://www.w3.org/2000/svg" viewBox="0 0 64 64"><title>target</title><path d="M33.75,39.81A8,8,0,0,1,24,32.67a2,2,0,0,0-.61-1.25A2,2,0,0,0,20,33q0,.31.07.61A12,12,0,1,0,33.61,20.11L33,20a2,2,0,0,0-1.59,3.37,2,2,0,0,0,1.25.61,8,8,0,0,1,7.18,9.58A7.81,7.81,0,0,1,33.75,39.81Z"/><path d="M16.49,24.49h0a2,2,0,0,0-3.3.71,20,20,0,1,0,12-12,2,2,0,0,0-.72,3.3,2,2,0,0,0,2.08.47,15.84,15.84,0,0,1,7.62-.81,16,16,0,1,1-18,18A15.84,15.84,0,0,1,17,26.57,2,2,0,0,0,16.49,24.49Z"/><path d="M29.72,59.91A28,28,0,1,0,18.94,7.24a2,2,0,0,0-.5,3.19h0a2,2,0,0,0,2.32.36,24,24,0,1,1-10,10,2,2,0,0,0-.36-2.32,2,2,0,0,0-3.19.5,28,28,0,0,0,22.47,41Z"/><path d="M8.12,14.76a4.22,4.22,0,0,0,3,1.24,5,5,0,0,1,3.53,1.46l16,16a2,2,0,0,0,2.94-.12,2.09,2.09,0,0,0-.2-2.8L17.46,14.63A5,5,0,0,1,16,11.1a4.22,4.22,0,0,0-1.24-3L11,4.31A.94.94,0,0,0,9.36,5V8.35a1,1,0,0,1-1,1H5A.94.94,0,0,0,4.31,11Z"/></svg>